<svg version="1.1" xmlns="http://www.w3.org/2000/svg" xmlns:xlink="http://www.w3.org/1999/xlink" viewBox="0 0 172 172"><defs><linearGradient x1="12.5775" y1="7.02692" x2="30.01758" y2="24.467" gradientUnits="userSpaceOnUse" id="color-1"><stop offset="0" stop-color="#c26715"></stop><stop offset="0" stop-color="#c26715"></stop><stop offset="0.51" stop-color="#b85515"></stop><stop offset="1" stop-color="#ad3f16"></stop></linearGradient><linearGradient x1="99.43033" y1="9.68933" x2="83.36625" y2="25.74983" gradientUnits="userSpaceOnUse" id="color-2"><stop offset="0" stop-color="#c26715"></stop><stop offset="0" stop-color="#c26715"></stop><stop offset="0.51" stop-color="#b85515"></stop><stop offset="1" stop-color="#ad3f16"></stop></linearGradient><linearGradient x1="57.33333" y1="-44.419" x2="57.33333" y2="91.93758" gradientUnits="userSpaceOnUse" id="color-3"><stop offset="0" stop-color="#d4943b"></stop><stop offset="1" stop-color="#c2620e"></stop><stop offset="1" stop-color="#c2620e"></stop></linearGradient><linearGradient x1="145.598" y1="107.07717" x2="145.598" y2="63.7905" gradientUnits="userSpaceOnUse" id="color-4"><stop offset="0" stop-color="#4c5963"></stop><stop offset="1" stop-color="#889097"></stop></linearGradient><linearGradient x1="87.32225" y1="107.07717" x2="87.32225" y2="63.7905" gradientUnits="userSpaceOnUse" id="color-5"><stop offset="0" stop-color="#4c5963"></stop><stop offset="1" stop-color="#889097"></stop></linearGradient><linearGradient x1="116.45833" y1="166.30967" x2="116.45833" y2="79.57508" gradientUnits="userSpaceOnUse" id="color-6"><stop offset="0" stop-color="#4c5963"></stop><stop offset="1" stop-color="#889097"></stop></linearGradient><linearGradient x1="107.5" y1="124.15175" x2="107.5" y2="162.17808" gradientUnits="userSpaceOnUse" id="color-7"><stop offset="0" stop-color="#a1aab3"></stop><stop offset="1" stop-color="#8f979e"></stop></linearGradient><linearGradient x1="125.41667" y1="124.15175" x2="125.41667" y2="162.17808" gradientUnits="userSpaceOnUse" id="color-8"><stop offset="0" stop-color="#a1aab3"></stop><stop offset="1" stop-color="#8f979e"></stop></linearGradient></defs><g fill="none" fill-rule="nonzero" stroke="none" stroke-width="1" stroke-linecap="butt" stroke-linejoin="miter" stroke-miterlimit="10" stroke-dasharray="" stroke-dashoffset="0" font-family="none" font-weight="none" font-size="none" text-anchor="none" style="mix-blend-mode: normal"><path d="M0,172v-172h172v172z" fill="none"></path><g><path d="M15.42625,46.40417l40.11542,-13.33v-22.32417h-23.29167c-11.87517,0 -21.5,9.99392 -21.5,22.32417v9.78608c0,2.51908 2.365,4.31075 4.67625,3.54392z" fill="url(#color-1)"></path><path d="M99.24042,46.40417l-40.11542,-13.33v-22.32417h23.29167c11.87517,0 21.5,9.99392 21.5,22.32417v9.78608c0,2.51908 -2.365,4.31075 -4.67625,3.54392z" fill="url(#color-2)"></path><path d="M93.16667,52.10525v-3.913c0,-26.95025 -28.1865,-45.7735 -52.21275,-33.72992c-11.48458,5.75483 -19.45392,17.08892 -19.45392,30.13225v7.51425c0,1.92425 -0.73817,3.80192 -2.14642,5.10983c-6.20992,5.77992 -9.70367,14.448 -8.29183,23.89725c1.88842,12.6205 14.69525,22.80075 27.4125,22.80075h34.04883c16.39733,0 29.20417,-10.191 31.08183,-22.82583c1.40467,-9.43133 -2.08192,-18.07792 -8.27392,-23.85425c-1.40825,-1.31508 -2.16433,-3.19275 -2.16433,-5.13133z" fill="url(#color-3)"></path><path d="M131.39008,89.58333c-5.97342,0 23.91158,28.0575 23.91158,28.0575c0,0 11.92175,-22.08408 -0.02508,-45.97417c-5.96983,0 -11.94325,17.91667 -23.8865,17.91667z" fill="url(#color-4)"></path><path d="M101.52658,89.58333c5.97342,0 -23.91158,28.0575 -23.91158,28.0575c0,0 -11.92175,-22.08408 0.02508,-45.97417c5.96983,0 11.94325,17.91667 23.8865,17.91667z" fill="url(#color-5)"></path><ellipse cx="32.5" cy="34.167" transform="scale(3.58333,3.58333)" rx="12.5" ry="10.833" fill="url(#color-6)"></ellipse><rect x="15" y="19.75" transform="scale(3.58333,3.58333)" width="2" height="9.25" fill="#5c2415"></rect><path d="M68.08333,66.65c0,-3.95958 -4.81242,-5.73333 -10.75,-5.73333c-5.93758,0 -10.75,1.77375 -10.75,5.73333c0,3.95958 4.81242,8.6 10.75,8.6c5.93758,0 10.75,-4.64042 10.75,-8.6z" fill="#5c2415"></path><circle cx="10.5" cy="14.5" transform="scale(3.58333,3.58333)" r="1.5" fill="#5c2415"></circle><circle cx="21.5" cy="14.5" transform="scale(3.58333,3.58333)" r="1.5" fill="#5c2415"></circle><circle cx="28.5" cy="31.5" transform="scale(3.58333,3.58333)" r="1.5" fill="#5c2415"></circle><circle cx="36.5" cy="31.5" transform="scale(3.58333,3.58333)" r="1.5" fill="#5c2415"></circle><g fill="#000000" opacity="0.05"><path d="M107.5,129c5.93758,0 10.75,4.81242 10.75,10.75c0,5.93758 -4.81242,10.75 -10.75,10.75c-5.93758,0 -10.75,-4.81242 -10.75,-10.75c0,-5.93758 4.81242,-10.75 10.75,-10.75M107.5,125.41667c-7.90483,0 -14.33333,6.4285 -14.33333,14.33333c0,7.90483 6.4285,14.33333 14.33333,14.33333c7.90483,0 14.33333,-6.4285 14.33333,-14.33333c0,-7.90483 -6.4285,-14.33333 -14.33333,-14.33333z"></path><path d="M125.41667,129c5.93758,0 10.75,4.81242 10.75,10.75c0,5.93758 -4.81242,10.75 -10.75,10.75c-5.93758,0 -10.75,-4.81242 -10.75,-10.75c0,-5.93758 4.81242,-10.75 10.75,-10.75M125.41667,125.41667c-7.90483,0 -14.33333,6.4285 -14.33333,14.33333c0,7.90483 6.4285,14.33333 14.33333,14.33333c7.90483,0 14.33333,-6.4285 14.33333,-14.33333c0,-7.90483 -6.4285,-14.33333 -14.33333,-14.33333z"></path><path d="M116.45833,125.41667c3.95958,0 7.16667,1.333 7.16667,4.3c0,2.967 -3.20708,6.45 -7.16667,6.45c-3.95958,0 -7.16667,-3.483 -7.16667,-6.45c0,-2.967 3.20708,-4.3 7.16667,-4.3M116.45833,121.83333c-7.9335,0 -10.75,4.24625 -10.75,7.88333c0,4.73717 4.59742,10.03333 10.75,10.03333c6.15258,0 10.75,-5.29617 10.75,-10.03333c0,-3.63708 -2.8165,-7.88333 -10.75,-7.88333z"></path></g><g fill="#000000" opacity="0.07"><path d="M107.5,129c5.93758,0 10.75,4.81242 10.75,10.75c0,5.93758 -4.81242,10.75 -10.75,10.75c-5.93758,0 -10.75,-4.81242 -10.75,-10.75c0,-5.93758 4.81242,-10.75 10.75,-10.75M107.5,127.20833c-6.91583,0 -12.54167,5.62583 -12.54167,12.54167c0,6.91583 5.62583,12.54167 12.54167,12.54167c6.91583,0 12.54167,-5.62583 12.54167,-12.54167c0,-6.91583 -5.62583,-12.54167 -12.54167,-12.54167z"></path><path d="M125.41667,129c5.93758,0 10.75,4.81242 10.75,10.75c0,5.93758 -4.81242,10.75 -10.75,10.75c-5.93758,0 -10.75,-4.81242 -10.75,-10.75c0,-5.93758 4.81242,-10.75 10.75,-10.75M125.41667,127.20833c-6.91583,0 -12.54167,5.62583 -12.54167,12.54167c0,6.91583 5.62583,12.54167 12.54167,12.54167c6.91583,0 12.54167,-5.62583 12.54167,-12.54167c0,-6.91583 -5.62583,-12.54167 -12.54167,-12.54167z"></path><path d="M116.45833,125.41667c3.95958,0 7.16667,1.333 7.16667,4.3c0,2.967 -3.20708,6.45 -7.16667,6.45c-3.95958,0 -7.16667,-3.483 -7.16667,-6.45c0,-2.967 3.20708,-4.3 7.16667,-4.3M116.45833,123.625c-5.5255,0 -8.95833,2.33275 -8.95833,6.09167c0,3.81267 3.913,8.24167 8.95833,8.24167c5.04533,0 8.95833,-4.429 8.95833,-8.24167c0,-3.75892 -3.43283,-6.09167 -8.95833,-6.09167z"></path></g><circle cx="30" cy="39" transform="scale(3.58333,3.58333)" r="3" fill="url(#color-7)"></circle><circle cx="35" cy="39" transform="scale(3.58333,3.58333)" r="3" fill="url(#color-8)"></circle><path d="M123.625,129.71667c0,-2.967 -3.20708,-4.3 -7.16667,-4.3c-3.95958,0 -7.16667,1.333 -7.16667,4.3c0,2.967 3.20708,6.45 7.16667,6.45c3.95958,0 7.16667,-3.483 7.16667,-6.45z" fill="#d9414f"></path><g fill="#000000" opacity="0.05"><path d="M95.96167,84.02917c-2.86667,-1.97083 -5.41083,-5.12417 -7.66833,-7.955c-3.47583,-4.26417 -6.45,-7.99083 -10.6425,-7.99083h-2.22167l-1.00333,1.97083c-6.235,12.54167 -6.45,24.58167 -4.87333,33.8625h2.97417c0.215,0 0.46583,0 0.68083,-0.03583c-1.54083,-8.52833 -1.6125,-20.13833 4.44333,-32.21417c4.90917,0 9.81833,12.07583 18.02417,16.37583c2.15,-0.9675 4.44333,-1.79167 6.7725,-2.4725c0.25083,-0.68083 0.46583,-1.36167 0.645,-2.0425c0.17917,-0.645 0.3225,-1.29 0.39417,-1.97083c-2.54417,0.645 -5.08833,1.46917 -7.525,2.4725z"></path></g><g fill="#000000" opacity="0.07"><path d="M95.7825,86.07167c-3.44,-2.07833 -6.30667,-5.66167 -8.88667,-8.85083c-3.18917,-3.94167 -5.9125,-7.34583 -9.245,-7.34583h-1.11083l-0.50167,1.00333c-6.1275,12.255 -6.27083,24.04417 -4.6225,33.03833h1.11083c0.215,0 0.46583,0 0.68083,-0.03583c-1.54083,-8.52833 -1.6125,-20.13833 4.44333,-32.21417c4.90917,0 9.81833,12.07583 18.02417,16.37583c2.15,-0.9675 4.44333,-1.79167 6.7725,-2.4725c0.25083,-0.68083 0.46583,-1.36167 0.645,-2.0425c-2.50833,0.645 -4.945,1.505 -7.31,2.54417z"></path></g></g></g></svg>