<svg version="1.1" xmlns="http://www.w3.org/2000/svg" xmlns:xlink="http://www.w3.org/1999/xlink" viewBox="0 0 172 172"><defs><radialGradient cx="173.70925" cy="130.70208" r="82.20883" gradientUnits="userSpaceOnUse" id="color-1"><stop offset="0" stop-color="#ffcf7b"></stop><stop offset="0.195" stop-color="#fecd76"></stop><stop offset="0.439" stop-color="#fac666"></stop><stop offset="0.71" stop-color="#f3bc4d"></stop><stop offset="0.997" stop-color="#eaad29"></stop><stop offset="1" stop-color="#eaad29"></stop></radialGradient><linearGradient x1="85.6775" y1="64.97658" x2="85.6775" y2="151.98708" gradientUnits="userSpaceOnUse" id="color-2"><stop offset="0" stop-color="#c26715"></stop><stop offset="0.508" stop-color="#b85515"></stop><stop offset="1" stop-color="#ad3f16"></stop></linearGradient></defs><g fill="none" fill-rule="nonzero" stroke="none" stroke-width="1" stroke-linecap="butt" stroke-linejoin="miter" stroke-miterlimit="10" stroke-dasharray="" stroke-dashoffset="0" font-family="none" font-weight="none" font-size="none" text-anchor="none" style="mix-blend-mode: normal"><path d="M0,172v-172h172v172z" fill="none"></path><g><path d="M143.33333,21.5h-114.66667c-3.95958,0 -7.16667,3.20708 -7.16667,7.16667v114.66667c0,3.95958 3.20708,7.16667 7.16667,7.16667h114.66667c3.95958,0 7.16667,-3.20708 7.16667,-7.16667v-114.66667c0,-3.95958 -3.20708,-7.16667 -7.16667,-7.16667z" fill="url(#color-1)"></path><path d="M114.89958,82.64958c-4.11725,-4.11725 -10.76792,-4.20683 -14.99625,-0.20425l-35.40333,33.54v34.51467h78.83333c3.95958,0 7.16667,-3.20708 7.16667,-7.16667v-25.08333z" fill="#d6742d"></path><circle cx="30.5" cy="14.5" transform="scale(3.58333,3.58333)" r="3.5" fill="#fff8de"></circle><path d="M28.66667,150.5h114.66667c2.90608,0 5.40008,-1.73792 6.52167,-4.22833l-77.95542,-77.95542c-4.11725,-4.11725 -10.76792,-4.20683 -14.99625,-0.20425l-35.40333,33.54v41.68133c0,3.95958 3.20708,7.16667 7.16667,7.16667z" fill="url(#color-2)"></path></g></g></svg>