<svg version="1.1" xmlns="http://www.w3.org/2000/svg" xmlns:xlink="http://www.w3.org/1999/xlink" viewBox="0 0 172 172"><defs><linearGradient x1="125.41667" y1="86" x2="150.5" y2="86" gradientUnits="userSpaceOnUse" id="color-1"><stop offset="0" stop-color="#7f22e2"></stop><stop offset="1" stop-color="#b133f0"></stop></linearGradient><linearGradient x1="128.89967" y1="86.00358" x2="140.1585" y2="86.00358" gradientUnits="userSpaceOnUse" id="color-2"><stop offset="0.441" stop-color="#999998"></stop><stop offset="0.653" stop-color="#c1c1c0"></stop><stop offset="0.88" stop-color="#e5e5e5"></stop><stop offset="1" stop-color="#f3f3f3"></stop></linearGradient><linearGradient x1="33.93417" y1="33.95567" x2="74.61933" y2="144.79175" gradientUnits="userSpaceOnUse" id="color-3"><stop offset="0" stop-color="#6f01d0"></stop><stop offset="1" stop-color="#51189c"></stop></linearGradient><linearGradient x1="72.61983" y1="23.21283" x2="120.6795" y2="154.12992" gradientUnits="userSpaceOnUse" id="color-4"><stop offset="0" stop-color="#b133f0"></stop><stop offset="1" stop-color="#9f22e2"></stop></linearGradient><linearGradient x1="96.64967" y1="96.75358" x2="107.9085" y2="96.75358" gradientUnits="userSpaceOnUse" id="color-5"><stop offset="0.441" stop-color="#999998"></stop><stop offset="0.653" stop-color="#c1c1c0"></stop><stop offset="0.88" stop-color="#e5e5e5"></stop><stop offset="1" stop-color="#f3f3f3"></stop></linearGradient><linearGradient x1="11.86083" y1="52.9115" x2="46.20708" y2="146.47233" gradientUnits="userSpaceOnUse" id="color-6"><stop offset="0" stop-color="#0176d0"></stop><stop offset="1" stop-color="#16538c"></stop></linearGradient><linearGradient x1="47.33583" y1="43.16842" x2="88.27542" y2="154.69967" gradientUnits="userSpaceOnUse" id="color-7"><stop offset="0" stop-color="#33bef0"></stop><stop offset="1" stop-color="#22a5e2"></stop></linearGradient></defs><g fill="none" fill-rule="nonzero" stroke="none" stroke-width="1" stroke-linecap="butt" stroke-linejoin="miter" stroke-miterlimit="10" stroke-dasharray="" stroke-dashoffset="0" font-family="none" font-weight="none" font-size="none" text-anchor="none" style="mix-blend-mode: normal"><path d="M0,172v-172h172v172z" fill="none"></path><g><path d="M150.5,25.08333v121.83333c0,3.95958 -3.20708,7.16667 -7.16667,7.16667h-17.91667v-136.16667h17.91667c3.95958,0 7.16667,3.20708 7.16667,7.16667z" fill="url(#color-1)"></path><path d="M143.33333,25.08333v121.83333c0,3.95958 -3.20708,7.16667 -7.16667,7.16667h-21.5v-136.16667h21.5c3.95958,0 7.16667,3.20708 7.16667,7.16667z" fill="url(#color-2)"></path><path d="M46.58333,25.08333v121.83333c0,3.95958 3.20708,7.16667 7.16667,7.16667h3.58333v-136.16667h-3.58333c-3.95958,0 -7.16667,3.20708 -7.16667,7.16667z" fill="url(#color-3)"></path><path d="M129,17.91667h-71.66667v136.16667h71.66667c3.95958,0 7.16667,-3.20708 7.16667,-7.16667v-121.83333c0,-3.95958 -3.20708,-7.16667 -7.16667,-7.16667z" fill="url(#color-4)"></path><path d="M112.22642,32.25h-65.64308v121.83333h65.64308c7.28492,0 13.19025,-5.90533 13.19025,-13.19025v-95.45283c0,-7.28492 -5.90533,-13.19025 -13.19025,-13.19025z" fill="#000000" opacity="0.05"></path><path d="M111.66025,35.83333h-65.07692v118.25h65.07692c5.61867,0 10.17308,-4.55442 10.17308,-10.17308v-97.90383c0,-5.61867 -4.55442,-10.17308 -10.17308,-10.17308z" fill="#000000" opacity="0.07"></path><path d="M118.25,46.58333v100.33333c0,3.95958 -3.20708,7.16667 -7.16667,7.16667h-17.91667v-114.66667h17.91667c3.95958,0 7.16667,3.20708 7.16667,7.16667z" fill="#1783bd"></path><path d="M111.08333,46.58333v100.33333c0,3.95958 -3.20708,7.16667 -7.16667,7.16667h-21.5v-114.66667h21.5c3.95958,0 7.16667,3.20708 7.16667,7.16667z" fill="url(#color-5)"></path><path d="M21.5,46.58333v100.33333c0,3.95958 3.20708,7.16667 7.16667,7.16667h3.58333v-114.66667h-3.58333c-3.95958,0 -7.16667,3.20708 -7.16667,7.16667z" fill="url(#color-6)"></path><path d="M96.75,39.41667h-64.5v114.66667h64.5c3.95958,0 7.16667,-3.20708 7.16667,-7.16667v-100.33333c0,-3.95958 -3.20708,-7.16667 -7.16667,-7.16667z" fill="url(#color-7)"></path><rect x="14" y="21" transform="scale(3.58333,3.58333)" width="10" height="2" fill="#1b9de2"></rect></g></g></svg>