<svg version="1.1" xmlns="http://www.w3.org/2000/svg" xmlns:xlink="http://www.w3.org/1999/xlink" viewBox="0 0 172 172"><defs><linearGradient x1="75.41483" y1="19.10275" x2="115.05008" y2="148.49692" gradientUnits="userSpaceOnUse" id="color-1"><stop offset="0" stop-color="#ffc430"></stop><stop offset="0.52" stop-color="#fbb730"></stop><stop offset="1" stop-color="#f7a72f"></stop></linearGradient><linearGradient x1="34.51108" y1="25.08333" x2="82.13358" y2="180.557" gradientUnits="userSpaceOnUse" id="color-2"><stop offset="0" stop-color="#ffc430"></stop><stop offset="0.52" stop-color="#fbb730"></stop><stop offset="1" stop-color="#f7a72f"></stop></linearGradient><linearGradient x1="103.157" y1="4.47917" x2="162.68692" y2="198.82125" gradientUnits="userSpaceOnUse" id="color-3"><stop offset="0" stop-color="#ffc430"></stop><stop offset="0.52" stop-color="#fbb730"></stop><stop offset="1" stop-color="#f7a72f"></stop></linearGradient><linearGradient x1="91.5255" y1="20.25658" x2="130.22192" y2="136.08783" gradientUnits="userSpaceOnUse" id="color-4"><stop offset="0" stop-color="#ffc430"></stop><stop offset="0.52" stop-color="#fbb730"></stop><stop offset="1" stop-color="#f7a72f"></stop></linearGradient><linearGradient x1="72.63775" y1="16.72342" x2="117.82358" y2="153.13017" gradientUnits="userSpaceOnUse" id="color-5"><stop offset="0" stop-color="#ffc430"></stop><stop offset="0.52" stop-color="#fbb730"></stop><stop offset="1" stop-color="#f7a72f"></stop></linearGradient></defs><g fill="none" fill-rule="nonzero" stroke="none" stroke-width="1" stroke-linecap="butt" stroke-linejoin="miter" stroke-miterlimit="10" stroke-dasharray="" stroke-dashoffset="0" font-family="none" font-weight="none" font-size="none" text-anchor="none" style="mix-blend-mode: normal"><path d="M0,172v-172h172v172z" fill="none"></path><g><path d="M146.91667,154.08333h-121.83333c-5.93758,0 -10.75,-4.81242 -10.75,-10.75v0c0,-5.93758 4.81242,-10.75 10.75,-10.75h121.83333c5.93758,0 10.75,4.81242 10.75,10.75v0c0,5.93758 -4.81242,10.75 -10.75,10.75z" fill="#4d5155"></path><path d="M35.33167,55.6205l-1.59458,15.2435l16.42958,29.46933v-35.83333h64.5l21.48208,-11.46308l-3.56542,-35.12025h-62.10992z" fill="url(#color-1)"></path><path d="M46.58333,50.16667c-7.91558,0 -14.33333,6.41775 -14.33333,14.33333c0,7.91558 6.41775,14.33333 14.33333,14.33333c7.91558,0 14.33333,-6.41775 14.33333,-14.33333c0,-7.91558 -6.41775,-14.33333 -14.33333,-14.33333z" fill="url(#color-2)"></path><path d="M118.25,35.83333c-9.89358,0 -17.91667,8.02308 -17.91667,17.91667c0,9.89358 8.02308,17.91667 17.91667,17.91667c9.89358,0 17.91667,-8.02308 17.91667,-17.91667c0,-9.89358 -8.02308,-17.91667 -17.91667,-17.91667z" fill="url(#color-3)"></path><path d="M114.66667,64.5h-57.33333c-3.95958,0 -7.16667,3.20708 -7.16667,7.16667v82.41667h71.66667v-82.41667c0,-3.95958 -3.20708,-7.16667 -7.16667,-7.16667z" fill="#35c1f1"></path><path d="M104.92,48.46458l-17.79483,46.2895l25.75342,12.341l21.63258,-45.83083z" fill="url(#color-4)"></path><path d="M100.33333,86c-7.91558,0 -14.33333,6.41775 -14.33333,14.33333c0,7.91558 6.41775,14.33333 14.33333,14.33333c7.91558,0 14.33333,-6.41775 14.33333,-14.33333c0,-7.91558 -6.41775,-14.33333 -14.33333,-14.33333z" fill="url(#color-5)"></path><circle cx="28" cy="28" transform="scale(3.58333,3.58333)" r="2" fill="#fff0c9"></circle></g></g></svg>