<svg version="1.1" xmlns="http://www.w3.org/2000/svg" xmlns:xlink="http://www.w3.org/1999/xlink" viewBox="0 0 172 172"><defs><linearGradient x1="70.08642" y1="66.59983" x2="97.27675" y2="66.59983" gradientUnits="userSpaceOnUse" id="color-1"><stop offset="0" stop-color="#21ad64"></stop><stop offset="1" stop-color="#088242"></stop></linearGradient><linearGradient x1="84.20475" y1="55.13317" x2="84.20475" y2="65.22383" gradientUnits="userSpaceOnUse" id="color-2"><stop offset="0" stop-color="#faf8e5"></stop><stop offset="1" stop-color="#faeeac"></stop></linearGradient><linearGradient x1="40.7425" y1="61.22125" x2="79.60017" y2="61.22125" gradientUnits="userSpaceOnUse" id="color-3"><stop offset="0" stop-color="#f44f5a"></stop><stop offset="0.443" stop-color="#ee3d4a"></stop><stop offset="1" stop-color="#e52030"></stop></linearGradient><linearGradient x1="144.03208" y1="113.02908" x2="62.30342" y2="113.02908" gradientUnits="userSpaceOnUse" id="color-4"><stop offset="0" stop-color="#fed100"></stop><stop offset="0.273" stop-color="#f3b000"></stop><stop offset="0.552" stop-color="#ea9601"></stop><stop offset="0.803" stop-color="#e58701"></stop><stop offset="1" stop-color="#e38101"></stop></linearGradient><linearGradient x1="60.87725" y1="51.6" x2="60.87725" y2="204.2715" gradientUnits="userSpaceOnUse" id="color-5"><stop offset="0" stop-color="#fed100"></stop><stop offset="0.327" stop-color="#f6ba00"></stop><stop offset="1" stop-color="#e38101"></stop></linearGradient><linearGradient x1="114.66667" y1="27.40175" x2="114.66667" y2="206.71175" gradientUnits="userSpaceOnUse" id="color-6"><stop offset="0" stop-color="#a34f27"></stop><stop offset="0.587" stop-color="#8b3817"></stop><stop offset="1" stop-color="#802d10"></stop></linearGradient><linearGradient x1="114.66667" y1="14.75617" x2="114.66667" y2="44.3545" gradientUnits="userSpaceOnUse" id="color-7"><stop offset="0" stop-color="#32bdef"></stop><stop offset="1" stop-color="#1ea2e4"></stop></linearGradient><linearGradient x1="114.66667" y1="5.47892" x2="114.66667" y2="23.6285" gradientUnits="userSpaceOnUse" id="color-8"><stop offset="0" stop-color="#f44f5a"></stop><stop offset="0.443" stop-color="#ee3d4a"></stop><stop offset="1" stop-color="#e52030"></stop></linearGradient><linearGradient x1="114.66667" y1="67.02983" x2="114.66667" y2="121.8405" gradientUnits="userSpaceOnUse" id="color-9"><stop offset="0" stop-color="#f44f5a"></stop><stop offset="0.443" stop-color="#ee3d4a"></stop><stop offset="1" stop-color="#e52030"></stop></linearGradient></defs><g fill="none" fill-rule="nonzero" stroke="none" stroke-width="1" stroke-linecap="butt" stroke-linejoin="miter" stroke-miterlimit="10" stroke-dasharray="" stroke-dashoffset="0" font-family="none" font-weight="none" font-size="none" text-anchor="none" style="mix-blend-mode: normal"><path d="M0,172v-172h172v172z" fill="none"></path><g><path d="M94.35992,48.38217c0,-7.25625 -5.88383,-13.14008 -13.14008,-13.14008c-0.15408,0 -0.29742,0.03942 -0.4515,0.04658c-1.44408,-5.68317 -6.55392,-9.90075 -12.685,-9.90075c-6.13108,0 -11.24092,4.21758 -12.68858,9.90075c-0.15408,-0.00358 -0.29742,-0.04658 -0.4515,-0.04658c-7.25625,0 -13.14008,5.88383 -13.14008,13.14008c-7.25267,0 -13.1365,5.88025 -13.1365,13.1365c0,7.25625 5.88383,13.14008 13.14008,13.14008c2.40442,0 4.62967,-0.69517 6.56825,-1.82392c1.93858,1.12875 4.16383,1.82392 6.56825,1.82392c2.40442,0 4.62967,-0.69517 6.56825,-1.82392c1.93858,1.12875 4.16383,1.82392 6.56825,1.82392c2.40442,0 4.62967,-0.69517 6.56825,-1.82392c1.93858,1.12875 4.16383,1.82392 6.56825,1.82392c2.40442,0 4.62967,-0.69517 6.56825,-1.82392c1.93858,1.12875 4.16383,1.82392 6.56825,1.82392c7.25625,0 13.14008,-5.88383 13.14008,-13.14008c0.00717,-7.25625 -5.87667,-13.1365 -13.13292,-13.1365z" fill="#33c481"></path><circle cx="23.499" cy="18.586" transform="scale(3.58333,3.58333)" r="3.499" fill="url(#color-1)"></circle><circle cx="23.499" cy="18.586" transform="scale(3.58333,3.58333)" r="2.501" fill="url(#color-2)"></circle><circle cx="17" cy="17.085" transform="scale(3.58333,3.58333)" r="5" fill="url(#color-3)"></circle><circle cx="17" cy="17.085" transform="scale(3.58333,3.58333)" r="4" fill="#eb6773"></circle><path d="M103.94533,64.80458h-11.10833c-27.48058,0 -50.79733,23.25225 -50.79733,49.88717v46.55825h52.66783h2.69108c1.81675,0 3.33967,-1.32583 3.53317,-3.07808l6.54675,-89.55825c0.22575,-2.03533 -1.419,-3.80908 -3.53317,-3.80908z" fill="url(#color-4)"></path><path d="M43.32967,64.80458h-11.10833c-2.11417,0 -3.75892,1.77733 -3.53317,3.81267l6.54675,89.55825c0.1935,1.74867 1.71642,3.0745 3.53317,3.0745h4.56158c27.48058,0 49.76175,-21.58958 49.76175,-48.2245v0c-0.00358,-26.63133 -22.28117,-48.22092 -49.76175,-48.22092z" fill="url(#color-5)"></path><g><path d="M143.33333,154.08333c0,3.94167 -3.225,7.16667 -7.16667,7.16667h-43c-1.97083,0 -3.7625,-0.78833 -5.0525,-2.11417c-1.32583,-1.29 -2.11417,-3.08167 -2.11417,-5.0525c0,-2.365 0.39417,-4.73 1.14667,-6.9875l2.2575,-6.84417c2.4725,-7.4175 3.18917,-15.265 2.07833,-22.96917l-0.89583,-6.19917l-2.9025,-20.5325c-0.93167,-6.3425 -0.39417,-12.7925 1.505,-18.88417c0.39417,-1.29 0.86,-2.54417 1.36167,-3.7625l12.82833,-30.745c0.17917,-0.43 0.3225,-0.86 0.39417,-1.32583h21.78667c0.07167,0.46583 0.215,0.89583 0.39417,1.32583l12.82833,30.745c0.50167,1.21833 0.9675,2.4725 1.36167,3.7625c1.89917,6.09167 2.43667,12.54167 1.505,18.88417l-2.9025,20.5325l-0.89583,6.19917c-1.11083,7.70417 -0.39417,15.55167 2.07833,22.96917l2.2575,6.84417c0.7525,2.2575 1.14667,4.6225 1.14667,6.9875z" fill="url(#color-6)"></path><path d="M125.56,35.83333h-21.78667c0.1075,-0.46583 0.14333,-0.9675 0.14333,-1.43333v-16.48333h21.5v16.48333c0,0.46583 0.03583,0.9675 0.14333,1.43333z" fill="url(#color-7)"></path><path d="M123.625,21.5h-17.91667c-2.967,0 -5.375,-2.408 -5.375,-5.375v0c0,-2.967 2.408,-5.375 5.375,-5.375h17.91667c2.967,0 5.375,2.408 5.375,5.375v0c0,2.967 -2.408,5.375 -5.375,5.375z" fill="url(#color-8)"></path><path d="M141.64917,90.55083l-2.9025,20.5325h-48.16l-2.9025,-20.5325c-0.93167,-6.3425 -0.39417,-12.7925 1.505,-18.88417h50.955c1.89917,6.09167 2.43667,12.54167 1.505,18.88417z" fill="url(#color-9)"></path></g><g fill="#000000"><path d="M86,154.08333c0,-2.365 0.39417,-4.73 1.14667,-6.9875l2.2575,-6.84417c2.4725,-7.4175 3.18917,-15.265 2.07833,-22.96917l-0.89583,-6.19917l-2.9025,-20.5325c-0.93167,-6.3425 -0.39417,-12.7925 1.505,-18.88417c0.39417,-1.29 0.86,-2.54417 1.36167,-3.7625l7.88333,-18.88417c-0.57333,-0.17917 -1.14667,-0.3225 -1.75583,-0.43c-0.60917,-0.1075 -1.21833,-0.17917 -1.86333,-0.17917l-7.56083,18.09583c-0.60917,1.46917 -1.11083,2.83083 -1.505,4.12083c-2.0425,6.59333 -2.61583,13.6525 -1.6125,20.46083l2.9025,20.49667l0.89583,6.19917c1.03917,7.095 0.35833,14.47667 -1.935,21.32083l-2.2575,6.88c-0.89583,2.61583 -1.32583,5.375 -1.32583,8.09833c0,2.6875 0.9675,5.23167 2.75917,7.16667h7.99083c-1.97083,0 -3.7625,-0.78833 -5.0525,-2.11417c-1.32583,-1.29 -2.11417,-3.08167 -2.11417,-5.0525z" opacity="0.05"></path><path d="M86,154.08333c0,-2.365 0.39417,-4.73 1.14667,-6.9875l2.2575,-6.84417c2.4725,-7.4175 3.18917,-15.265 2.07833,-22.96917l-0.89583,-6.19917l-2.9025,-20.5325c-0.93167,-6.3425 -0.39417,-12.7925 1.505,-18.88417c0.39417,-1.29 0.86,-2.54417 1.36167,-3.7625l7.88333,-18.88417c-0.57333,-0.17917 -1.14667,-0.3225 -1.75583,-0.43l-7.77583,18.63333c-0.57333,1.3975 -1.03917,2.6875 -1.43333,3.90583c-1.97083,6.37833 -2.50833,13.15083 -1.54083,19.6725l2.86667,20.5325l0.93167,6.19917c1.03917,7.38167 0.35833,15.01417 -2.00667,22.145l-2.2575,6.84417c-0.82417,2.4725 -1.25417,5.01667 -1.25417,7.56083c0,2.43667 0.93167,4.65833 2.65167,6.3425c0.28667,0.28667 0.60917,0.57333 0.93167,0.82417h5.375c-1.97083,0 -3.7625,-0.78833 -5.0525,-2.11417c-1.32583,-1.29 -2.11417,-3.08167 -2.11417,-5.0525z" opacity="0.07"></path></g></g></g></svg>