<svg version="1.1" xmlns="http://www.w3.org/2000/svg" xmlns:xlink="http://www.w3.org/1999/xlink" viewBox="0 0 172 172"><defs><linearGradient x1="55.88208" y1="17.44008" x2="126.60992" y2="126.36267" gradientUnits="userSpaceOnUse" id="color-1"><stop offset="0" stop-color="#f44f5a"></stop><stop offset="0.443" stop-color="#ee3d4a"></stop><stop offset="1" stop-color="#e52030"></stop></linearGradient></defs><g fill="none" fill-rule="nonzero" stroke="none" stroke-width="1" stroke-linecap="butt" stroke-linejoin="miter" stroke-miterlimit="10" stroke-dasharray="" stroke-dashoffset="0" font-family="none" font-weight="none" font-size="none" text-anchor="none" style="mix-blend-mode: normal"><path d="M0,172v-172h172v172z" fill="none"></path><g><path d="M86,43.89583c0,0 16.84525,-18.8125 37.625,-18.8125c20.77975,0 37.625,17.07458 37.625,37.625c0,35.36392 -55.41983,75.7445 -71.13992,86.48375c-2.49042,1.70208 -5.72975,1.70208 -8.22017,0c-15.72008,-10.73925 -71.13992,-51.11983 -71.13992,-86.48375c0,-20.55042 16.84525,-37.625 37.625,-37.625c20.77975,0 37.625,18.8125 37.625,18.8125z" fill="url(#color-1)"></path><path d="M95.5675,101.179c0.39775,1.29717 1.50142,2.2575 2.84158,2.47608c1.32225,0.20783 2.69108,-0.34042 3.48658,-1.43692l6.53958,-9.0515h15.18975c1.98158,0 3.58333,-1.60533 3.58333,-3.58333c0,-1.978 -1.60175,-3.58333 -3.58333,-3.58333h-17.02083c-1.15025,0 -2.22883,0.55183 -2.90608,1.48708l-3.40775,4.71567l-6.38908,-20.66508c-0.4515,-1.46917 -1.79167,-2.48325 -3.32892,-2.52267c-1.52292,-0.06092 -2.924,0.89942 -3.45792,2.3435l-11.438,31.02808l-6.73308,-46.90583c-0.23292,-1.634 -1.55517,-2.89175 -3.19275,-3.05658c-1.66983,-0.17558 -3.182,0.81342 -3.73383,2.365l-11.51683,32.41125l-9.46358,-13.96067c-0.7095,-1.04275 -1.92067,-1.65192 -3.1605,-1.5695c-1.25775,0.06808 -2.38292,0.78833 -2.97058,1.89558l-6.60408,12.43417h-10.73208c1.30792,2.40442 2.76633,4.7945 4.35733,7.16667h8.53192c1.32583,0 2.54417,-0.731 3.16408,-1.90275l4.82675,-9.08017l10.09425,14.8995c0.75608,1.118 2.04608,1.72358 3.42208,1.54442c1.34017,-0.16842 2.46892,-1.08217 2.92042,-2.35425l9.02642,-25.40583l6.68292,46.5475c0.23292,1.62325 1.54083,2.881 3.17125,3.05658c0.129,0.01075 0.25442,0.01792 0.37983,0.01792c1.4835,0 2.83442,-0.9245 3.36117,-2.3435l12.67425,-34.38208z" fill="#ffebee"></path><path d="M125.41667,82.41667c-3.95958,0 -7.16667,3.20708 -7.16667,7.16667c0,3.95958 3.20708,7.16667 7.16667,7.16667c3.95958,0 7.16667,-3.20708 7.16667,-7.16667c0,-3.95958 -3.20708,-7.16667 -7.16667,-7.16667z" fill="#ffebee"></path></g></g></svg>