<svg version="1.1" xmlns="http://www.w3.org/2000/svg" xmlns:xlink="http://www.w3.org/1999/xlink" viewBox="0 0 172 172"><defs><linearGradient x1="148.06333" y1="26.47008" x2="28.85658" y2="127.04708" gradientUnits="userSpaceOnUse" id="color-1"><stop offset="0" stop-color="#a1aab3"></stop><stop offset="1" stop-color="#8f979e"></stop></linearGradient><linearGradient x1="71.66308" y1="32.64058" x2="101.91" y2="130.10367" gradientUnits="userSpaceOnUse" id="color-2"><stop offset="0" stop-color="#6d7479"></stop><stop offset="1" stop-color="#323538"></stop></linearGradient><linearGradient x1="86" y1="132.55467" x2="86" y2="146.94533" gradientUnits="userSpaceOnUse" id="color-3"><stop offset="0" stop-color="#484b4f"></stop><stop offset="0.23" stop-color="#656d75"></stop><stop offset="0.367" stop-color="#727d86"></stop></linearGradient></defs><g fill="none" fill-rule="nonzero" stroke="none" stroke-width="1" stroke-linecap="butt" stroke-linejoin="miter" stroke-miterlimit="10" stroke-dasharray="" stroke-dashoffset="0" font-family="none" font-weight="none" font-size="none" text-anchor="none" style="mix-blend-mode: normal"><path d="M0,172v-172h172v172z" fill="none"></path><g><path d="M14.33333,132.58333h143.33333c3.95958,0 7.16667,-3.20708 7.16667,-7.16667v-93.16667c0,-3.95958 -3.20708,-7.16667 -7.16667,-7.16667h-143.33333c-3.95958,0 -7.16667,3.20708 -7.16667,7.16667v93.16667c0,3.95958 3.20708,7.16667 7.16667,7.16667z" fill="url(#color-1)"></path><rect x="4" y="9" transform="scale(3.58333,3.58333)" width="40" height="26" fill="url(#color-2)"></rect><path d="M134.375,139.75h-26.875v-7.16667h-43v7.16667h-26.875c-0.989,0 -1.79167,0.80267 -1.79167,1.79167v3.58333c0,0.989 0.80267,1.79167 1.79167,1.79167h96.75c0.989,0 1.79167,-0.80267 1.79167,-1.79167v-3.58333c0,-0.989 -0.80267,-1.79167 -1.79167,-1.79167z" fill="url(#color-3)"></path><path d="M114.09692,75.62267c0,0 -32.73017,-21.89058 -36.66467,-24.44192c-3.9345,-2.55492 -9.34892,-0.69517 -9.34892,5.00233v47.60458c0,6.42133 5.3105,8.93683 9.34533,6.28158c4.03842,-2.65167 36.66467,-24.44192 36.66467,-24.44192c1.677,-1.118 2.67675,-2.9885 2.67675,-5.00233c0.00358,-2.01383 -0.99617,-3.88433 -2.67317,-5.00233z" fill="#000000" opacity="0.05"></path><path d="M76.83742,52.71442l18.13883,12.09375l16.2325,10.82167c2.76633,2.06758 3.64425,3.13542 3.64425,4.99517c0,1.44408 -0.45508,2.87025 -1.73792,3.72667l-18.13883,12.09375l-18.13883,12.09375c-1.03558,0.69158 -6.96242,2.77708 -6.96242,-6.24575v-21.66842v-21.66842c0,-9.09092 5.05967,-7.51067 6.96242,-6.24217z" fill="#000000" opacity="0.07"></path><path d="M71.66667,104.55092v-47.85183c0,-2.35067 2.61942,-3.75175 4.57592,-2.44742l35.89067,23.92592c1.74867,1.16458 1.74867,3.73025 0,4.89842l-35.89067,23.92592c-1.9565,1.30433 -4.57592,-0.10033 -4.57592,-2.451z" fill="#ffffff"></path></g></g></svg>