<svg version="1.1" xmlns="http://www.w3.org/2000/svg" xmlns:xlink="http://www.w3.org/1999/xlink" viewBox="0 0 172 172"><defs><linearGradient x1="86.07167" y1="126.14408" x2="86.07167" y2="59.75567" gradientUnits="userSpaceOnUse" id="color-1"><stop offset="0" stop-color="#000000"></stop><stop offset="0.188" stop-color="#040405"></stop><stop offset="0.397" stop-color="#111212"></stop><stop offset="0.615" stop-color="#262828"></stop><stop offset="0.838" stop-color="#444647"></stop><stop offset="1" stop-color="#5e6162"></stop></linearGradient><linearGradient x1="83.39133" y1="102.66608" x2="83.39133" y2="19.11708" gradientUnits="userSpaceOnUse" id="color-2"><stop offset="0" stop-color="#000000"></stop><stop offset="0.188" stop-color="#040405"></stop><stop offset="0.397" stop-color="#111212"></stop><stop offset="0.615" stop-color="#262828"></stop><stop offset="0.838" stop-color="#444647"></stop><stop offset="1" stop-color="#5e6162"></stop></linearGradient></defs><g fill="none" fill-rule="nonzero" stroke="none" stroke-width="1" stroke-linecap="butt" stroke-linejoin="miter" stroke-miterlimit="10" stroke-dasharray="" stroke-dashoffset="0" font-family="none" font-weight="none" font-size="none" text-anchor="none" style="mix-blend-mode: normal"><path d="M0,172v-172h172v172z" fill="none"></path><g><path d="M141.06508,146.80917l-127.95725,-46.57258c-1.85975,-0.67725 -2.82008,-2.73408 -2.14283,-4.59383l22.06258,-60.6085c0.67725,-1.85975 2.73408,-2.82008 4.59383,-2.14283l127.95367,46.57258c1.85975,0.67725 2.82008,2.73408 2.14283,4.59383l-22.059,60.6085c-0.68083,1.85975 -2.73408,2.82008 -4.59383,2.14283z" fill="#61e3a7"></path><path d="M51.08758,37.79342l-24.51,67.34517l101.01775,36.76858l24.51,-67.34517zM67.295,108.51767c-13.01825,-4.73717 -19.72983,-19.13142 -14.99267,-32.14967c4.73717,-13.01825 19.13142,-19.72983 32.14967,-14.99267c13.01825,4.73717 19.72983,19.13142 14.99267,32.14967c-4.73717,13.01825 -19.13142,19.72983 -32.14967,14.99267zM122.85458,128.742c-2.78783,-1.01408 -4.22833,-4.09933 -3.21425,-6.89075c1.01408,-2.78783 4.09933,-4.22833 6.89075,-3.21425c2.78783,1.01408 4.22833,4.09933 3.21425,6.89075c-1.01767,2.79142 -4.10292,4.22833 -6.89075,3.21425zM109.38483,123.84c-2.78783,-1.01408 -4.22833,-4.09933 -3.21425,-6.89075c1.01408,-2.78783 4.09933,-4.22833 6.89075,-3.21425c2.78783,1.01408 4.22833,4.09933 3.21425,6.89075c-1.01767,2.78783 -4.10292,4.22833 -6.89075,3.21425z" fill="#107c42"></path><path d="M163.0775,78.55383l-125.45608,-45.66242c-1.85975,-0.67725 -3.91658,0.28308 -4.59383,2.14283l-22.059,60.6085c-0.67725,1.85975 0.28308,3.91658 2.14283,4.59383l18.791,6.84058l115.28658,20.32825l0.00358,0.00358c0.41567,0.07525 0.8385,0.1075 1.25775,0.1075c1.376,0 2.71258,-0.42642 3.88792,-1.19325l4.50067,-12.3625z" fill="#000000" opacity="0.05"></path><path d="M33.02758,35.03425l-22.059,60.6085c-0.11467,0.31533 -0.15408,0.63783 -0.17558,0.95675c-0.01075,0.24367 -0.0215,0.49092 0.01433,0.72742c0.01075,0.086 0.03225,0.16842 0.05017,0.25442c0.29025,1.25058 1.23267,2.30408 2.55492,2.65525l19.14933,5.1385l114.939,20.26733l0.00358,0.00358c0.43717,0.07525 0.87433,0.08958 1.29717,0.04658c1.38675,-0.14333 2.63017,-0.91375 3.35042,-2.0425l3.27875,-12.01133l5.94117,-33.70125l-123.75042,-45.04608c-1.85975,-0.67725 -3.91658,0.28308 -4.59383,2.14283z" fill="url(#color-1)" opacity="0.07"></path><path d="M147.80892,123.87583l-134.0955,-23.64283c-1.94933,-0.344 -3.25008,-2.20375 -2.90608,-4.1495l11.19792,-63.52175c0.344,-1.94933 2.20375,-3.25008 4.1495,-2.90608l134.09908,23.64642c1.94933,0.344 3.25008,2.20375 2.90608,4.1495l-11.2015,63.52175c-0.34042,1.94575 -2.20017,3.2465 -4.1495,2.9025z" fill="#61e3a7"></path><path d="M40.27308,32.1425l-12.44492,70.57733l105.866,18.66558l12.44492,-70.57733zM68.51333,98.97883c-13.64175,-2.40442 -22.75058,-15.4155 -20.34617,-29.05725c2.40442,-13.64175 15.4155,-22.75058 29.05725,-20.34617c13.64175,2.40442 22.75058,15.4155 20.34617,29.05725c-2.40442,13.64175 -15.4155,22.75058 -29.05725,20.34617zM126.73892,109.24508c-2.924,-0.516 -4.87692,-3.30383 -4.36092,-6.22783c0.516,-2.924 3.30383,-4.87692 6.22783,-4.36092c2.924,0.516 4.87692,3.30383 4.36092,6.22783c-0.516,2.924 -3.30383,4.87692 -6.22783,4.36092zM112.62417,106.75825c-2.924,-0.516 -4.87692,-3.30383 -4.36092,-6.22783c0.516,-2.924 3.30383,-4.87692 6.22783,-4.36092c2.924,0.516 4.87692,3.30383 4.36092,6.22783c-0.516,2.924 -3.30383,4.87692 -6.22783,4.36092z" fill="#21a366"></path><path d="M150.5,103.91667c1.85258,0 3.526,-0.72383 4.79808,-1.88483l2.36858,-13.41958v-35.76883l-131.51192,-23.18775c-1.94575,-0.344 -3.8055,0.95675 -4.1495,2.90608l-11.2015,63.51817c-0.344,1.94933 0.95675,3.80908 2.90608,4.1495l20.898,3.68725z" fill="#000000" opacity="0.05"></path><path d="M22.00525,32.56175l-10.99725,62.36075c-0.07525,0.43 -0.19708,2.01025 0.00717,2.365c0.06092,0.344 0.20067,0.6665 0.36192,0.97108c0.09317,0.17558 0.19708,0.34042 0.31533,0.4945c0.17558,0.22217 0.37267,0.41925 0.602,0.59125c0.10392,0.07883 0.21142,0.1505 0.32608,0.21858c0.1075,0.13617 0.69517,0.34042 0.83492,0.44075c0.03583,0.02867 0.13975,0.0645 0.17917,0.08958c0.16125,0.10033 0.89225,0.26517 1.08575,0.30817c0.12542,0.02867 0.56975,0.13258 0.70233,0.13258l18.00267,1.591h114.56275c0.9245,0 4.27492,-0.36192 4.91275,-0.94242c0.989,0 2.27542,-3.53675 2.27542,-4.52933l0.70233,-8.084v-36.04117l-129.72383,-22.87242c-1.94575,-0.344 -3.8055,0.95675 -4.1495,2.90608z" fill="url(#color-2)" opacity="0.07"></path><path d="M150.5,100.33333h-136.16667c-1.978,0 -3.58333,-1.60533 -3.58333,-3.58333v-64.5c0,-1.978 1.60533,-3.58333 3.58333,-3.58333h136.16667c1.978,0 3.58333,1.60533 3.58333,3.58333v64.5c0,1.978 -1.60533,3.58333 -3.58333,3.58333z" fill="#61e3a7"></path><path d="M28.66667,28.66667v71.66667h107.5v-71.66667zM68.08333,89.58333c-13.85317,0 -25.08333,-11.23017 -25.08333,-25.08333c0,-13.85317 11.23017,-25.08333 25.08333,-25.08333c13.85317,0 25.08333,11.23017 25.08333,25.08333c0,13.85317 -11.23017,25.08333 -25.08333,25.08333zM127.20833,89.58333c-2.967,0 -5.375,-2.408 -5.375,-5.375c0,-2.967 2.408,-5.375 5.375,-5.375c2.967,0 5.375,2.408 5.375,5.375c0,2.967 -2.408,5.375 -5.375,5.375zM112.875,89.58333c-2.967,0 -5.375,-2.408 -5.375,-5.375c0,-2.967 2.408,-5.375 5.375,-5.375c2.967,0 5.375,2.408 5.375,5.375c0,2.967 -2.408,5.375 -5.375,5.375z" fill="#33c481"></path></g><path d="" fill="none"></path></g></svg>