<svg version="1.1" xmlns="http://www.w3.org/2000/svg" xmlns:xlink="http://www.w3.org/1999/xlink" viewBox="0 0 172 172"><defs><linearGradient x1="107.5" y1="28.66667" x2="146.91667" y2="28.66667" gradientUnits="userSpaceOnUse" id="color-1"><stop offset="0" stop-color="#bd1949"></stop><stop offset="0.108" stop-color="#c31a4b"></stop><stop offset="0.38" stop-color="#ca1b4d"></stop><stop offset="1" stop-color="#cc1b4e"></stop></linearGradient></defs><g fill="none" fill-rule="nonzero" stroke="none" stroke-width="1" stroke-linecap="butt" stroke-linejoin="miter" stroke-miterlimit="10" stroke-dasharray="" stroke-dashoffset="0" font-family="none" font-weight="none" font-size="none" text-anchor="none" style="mix-blend-mode: normal"><path d="M0,172v-172h172v172z" fill="none"></path><g><path d="M71.66667,86c-19.79075,0 -35.83333,16.04258 -35.83333,35.83333c0,19.79075 16.04258,35.83333 35.83333,35.83333c19.79075,0 35.83333,-16.04258 35.83333,-35.83333c0,-19.79075 -16.04258,-35.83333 -35.83333,-35.83333z" fill="#ed3675"></path><path d="M139.75,43h-32.25v-28.66667h32.25c3.95958,0 7.16667,3.20708 7.16667,7.16667v14.33333c0,3.95958 -3.20708,7.16667 -7.16667,7.16667z" fill="url(#color-1)"></path><path d="M107.5,14.33333h-7.16667c-7.91558,0 -14.33333,6.41775 -14.33333,14.33333v93.16667h21.5z" fill="#ed3675"></path></g></g></svg>