<svg version="1.1" xmlns="http://www.w3.org/2000/svg" xmlns:xlink="http://www.w3.org/1999/xlink" viewBox="0 0 172 172"><defs><linearGradient x1="160.71967" y1="93.16667" x2="146.09608" y2="93.16667" gradientUnits="userSpaceOnUse" id="color-1"><stop offset="0" stop-color="#d69400"></stop><stop offset="0.057" stop-color="#d49200"></stop><stop offset="0.554" stop-color="#c78600"></stop><stop offset="1" stop-color="#c28200"></stop></linearGradient><linearGradient x1="82.41667" y1="25.70683" x2="82.41667" y2="149.898" gradientUnits="userSpaceOnUse" id="color-2"><stop offset="0" stop-color="#fec52b"></stop><stop offset="0.728" stop-color="#fdc429"></stop><stop offset="1" stop-color="#fac023"></stop></linearGradient></defs><g fill="none" fill-rule="nonzero" stroke="none" stroke-width="1" stroke-linecap="butt" stroke-linejoin="miter" stroke-miterlimit="10" stroke-dasharray="" stroke-dashoffset="0" font-family="none" font-weight="none" font-size="none" text-anchor="none" style="mix-blend-mode: normal"><path d="M0,172v-172h172v172z" fill="none"></path><g><path d="M154.08333,39.41667h-10.75v107.5h10.75c3.95958,0 7.16667,-3.20708 7.16667,-7.16667v-93.16667c0,-3.95958 -3.20708,-7.16667 -7.16667,-7.16667z" fill="url(#color-1)"></path><path d="M146.91667,139.75v-107.5c0,-3.95958 -3.20708,-7.16667 -7.16667,-7.16667h-121.83333c-3.95958,0 -7.16667,3.20708 -7.16667,7.16667v107.5c0,3.95958 3.20708,7.16667 7.16667,7.16667h136.16667c-3.95958,0 -7.16667,-3.20708 -7.16667,-7.16667z" fill="url(#color-2)"></path><path d="M132.58333,60.91667h-107.5c-1.978,0 -3.58333,-1.60533 -3.58333,-3.58333v-7.16667c0,-1.978 1.60533,-3.58333 3.58333,-3.58333h107.5c1.978,0 3.58333,1.60533 3.58333,3.58333v7.16667c0,1.978 -1.60533,3.58333 -3.58333,3.58333z" fill="#ffffff"></path><path d="M68.08333,125.41667h-43c-1.978,0 -3.58333,-1.60533 -3.58333,-3.58333v-43c0,-1.978 1.60533,-3.58333 3.58333,-3.58333h43c1.978,0 3.58333,1.60533 3.58333,3.58333v43c0,1.978 -1.60533,3.58333 -3.58333,3.58333z" fill="#ffffff"></path><path d="M136.16667,86h-50.16667v-7.16667c0,-1.978 1.60533,-3.58333 3.58333,-3.58333h43c1.978,0 3.58333,1.60533 3.58333,3.58333z" fill="#ffffff"></path><rect x="24" y="24" transform="scale(3.58333,3.58333)" width="14" height="3" fill="#fff0c7"></rect><path d="M132.58333,107.5h-43c-1.978,0 -3.58333,-1.60533 -3.58333,-3.58333v-7.16667h50.16667v7.16667c0,1.978 -1.60533,3.58333 -3.58333,3.58333z" fill="#ffe396"></path></g></g></svg>