<svg version="1.1" xmlns="http://www.w3.org/2000/svg" xmlns:xlink="http://www.w3.org/1999/xlink" viewBox="0 0 172 172"><g fill="none" fill-rule="nonzero" stroke="none" stroke-width="1" stroke-linecap="butt" stroke-linejoin="miter" stroke-miterlimit="10" stroke-dasharray="" stroke-dashoffset="0" font-family="none" font-weight="none" font-size="none" text-anchor="none" style="mix-blend-mode: normal"><path d="M0,172v-172h172v172z" fill="none"></path><g><path d="M21.5,136.16667c0,7.91558 6.41775,14.33333 14.33333,14.33333h100.33333c7.91558,0 14.33333,-6.41775 14.33333,-14.33333c0,-3.483 -1.29358,-6.63275 -3.35758,-9.116l-19.30342,-23.134h-83.678l-19.30342,23.134c-2.064,2.48325 -3.35758,5.633 -3.35758,9.116z" fill="#00c92c"></path><path d="M103.91667,75.25h-35.83333l-23.92233,28.66667h83.678z" fill="#35c1f1"></path><path d="M68.08333,32.25h35.83333v48.07758h-35.83333z" fill="#35c1f1"></path><path d="M111.08333,28.66667c0,3.956 -3.21067,7.16667 -7.16667,7.16667h-35.83333c-3.956,0 -7.16667,-3.21067 -7.16667,-7.16667v0c0,-3.956 3.21067,-7.16667 7.16667,-7.16667h35.83333c3.956,0 7.16667,3.21067 7.16667,7.16667z" fill="#50e6ff"></path><path d="M111.08333,121.83333c-5.93758,0 -10.75,4.81242 -10.75,10.75c0,5.93758 4.81242,10.75 10.75,10.75c5.93758,0 10.75,-4.81242 10.75,-10.75c0,-5.93758 -4.81242,-10.75 -10.75,-10.75z" fill="#9af5b2"></path><path d="M75.25,111.08333c-3.95958,0 -7.16667,3.20708 -7.16667,7.16667c0,3.95958 3.20708,7.16667 7.16667,7.16667c3.95958,0 7.16667,-3.20708 7.16667,-7.16667c0,-3.95958 -3.20708,-7.16667 -7.16667,-7.16667z" fill="#9af5b2"></path><path d="M89.58333,75.25c-3.95958,0 -7.16667,3.20708 -7.16667,7.16667c0,3.95958 3.20708,7.16667 7.16667,7.16667c3.95958,0 7.16667,-3.20708 7.16667,-7.16667c0,-3.95958 -3.20708,-7.16667 -7.16667,-7.16667zM84.20833,53.75c-2.967,0 -5.375,2.408 -5.375,5.375c0,2.967 2.408,5.375 5.375,5.375c2.967,0 5.375,-2.408 5.375,-5.375c0,-2.967 -2.408,-5.375 -5.375,-5.375z" fill="#e3f2fd"></path></g></g></svg>