<svg version="1.1" xmlns="http://www.w3.org/2000/svg" xmlns:xlink="http://www.w3.org/1999/xlink" viewBox="0 0 172 172"><defs><radialGradient cx="36.0555" cy="33.8195" r="146.61567" gradientUnits="userSpaceOnUse" id="color-1"><stop offset="0" stop-color="#f0f0f0"></stop><stop offset="1" stop-color="#7d7d7d"></stop></radialGradient><linearGradient x1="59.65533" y1="20.64717" x2="113.47342" y2="150.3065" gradientUnits="userSpaceOnUse" id="color-2"><stop offset="0" stop-color="#6d7479"></stop><stop offset="1" stop-color="#323538"></stop></linearGradient></defs><g fill="none" fill-rule="nonzero" stroke="none" stroke-width="1" stroke-linecap="butt" stroke-linejoin="miter" stroke-miterlimit="10" stroke-dasharray="" stroke-dashoffset="0" font-family="none" font-weight="none" font-size="none" text-anchor="none" style="mix-blend-mode: normal"><path d="M0,172v-172h172v172z" fill="none"></path><g><path d="M157.66667,86c0,39.57792 -32.08875,71.66667 -71.66667,71.66667c-39.57792,0 -71.66667,-32.08875 -71.66667,-71.66667c0,-39.57792 32.08875,-71.66667 71.66667,-71.66667c39.57792,0 71.66667,32.08875 71.66667,71.66667z" fill="url(#color-1)"></path><path d="M115.37258,79.40308l-9.91867,30.52283c-0.48017,1.47633 -1.85617,2.47608 -3.40775,2.47608h-32.08875c-1.55158,0 -2.92758,-0.99975 -3.40775,-2.47608l-9.91867,-30.52283c-0.48017,-1.47633 0.04658,-3.09242 1.30075,-4.00617l25.96125,-18.86267c1.25417,-0.91375 2.95625,-0.91375 4.214,0l25.96125,18.86267c1.25775,0.91375 1.78092,2.52983 1.30433,4.00617zM110.67483,18.78742c-7.70058,-2.83083 -15.98883,-4.45408 -24.67483,-4.45408c-8.686,0 -16.97425,1.62325 -24.67483,4.45408l23.03725,11.86083c1.02842,0.53033 2.25033,0.53033 3.27875,0zM154.155,63.855c-2.68033,-8.25958 -6.78683,-15.64125 -11.86083,-22.09125l-4.16025,25.57425c-0.18633,1.14308 0.18992,2.30408 1.01408,3.12108l18.39683,18.24275c0.31175,-8.20225 -0.70592,-16.58725 -3.38983,-24.84683zM29.69867,41.76375c-5.074,6.45358 -9.17692,13.83167 -11.86083,22.09125c-2.6875,8.25958 -3.698,16.641 -3.38625,24.84683l18.39683,-18.24275c0.82058,-0.81342 1.20042,-1.978 1.01408,-3.12108zM26.52742,125.87533c4.56875,6.81908 10.32,13.00033 17.34692,18.11017c7.02692,5.10625 14.6845,8.65733 22.58217,10.89692l-11.66733,-23.134c-0.51958,-1.032 -1.50858,-1.75225 -2.65525,-1.92783zM105.5435,154.87883c7.89408,-2.236 15.55525,-5.79783 22.58217,-10.9005c7.02692,-5.10267 12.77458,-11.29108 17.34692,-18.10658l-25.61008,3.94525c-1.14308,0.17558 -2.13208,0.89583 -2.65525,1.92783z" fill="url(#color-2)"></path></g></g></svg>