<svg version="1.1" xmlns="http://www.w3.org/2000/svg" xmlns:xlink="http://www.w3.org/1999/xlink" viewBox="0 0 172 172"><defs><linearGradient x1="86" y1="125.37008" x2="86" y2="146.95967" gradientUnits="userSpaceOnUse" id="color-1"><stop offset="0" stop-color="#a1aab3"></stop><stop offset="1" stop-color="#8f979e"></stop></linearGradient><linearGradient x1="29.971" y1="26.187" x2="137.58567" y2="116.98508" gradientUnits="userSpaceOnUse" id="color-2"><stop offset="0" stop-color="#a1aab3"></stop><stop offset="1" stop-color="#8f979e"></stop></linearGradient><radialGradient cx="173.58399" cy="203.72834" r="240.84581" gradientUnits="userSpaceOnUse" id="color-3"><stop offset="0.323" stop-color="#23d9d6"></stop><stop offset="0.427" stop-color="#23d4d7"></stop><stop offset="0.542" stop-color="#21c7dc"></stop><stop offset="0.664" stop-color="#1fb0e2"></stop><stop offset="0.789" stop-color="#1c91ec"></stop><stop offset="0.917" stop-color="#1969f8"></stop><stop offset="0.944" stop-color="#1860fb"></stop></radialGradient><linearGradient x1="86" y1="121.79392" x2="86" y2="139.78583" gradientUnits="userSpaceOnUse" id="color-4"><stop offset="0" stop-color="#484b4f"></stop><stop offset="0.028" stop-color="#565b61"></stop><stop offset="0.066" stop-color="#626a72"></stop><stop offset="0.114" stop-color="#6b757d"></stop><stop offset="0.181" stop-color="#717b84"></stop><stop offset="0.367" stop-color="#727d86"></stop></linearGradient></defs><g fill="none" fill-rule="nonzero" stroke="none" stroke-width="1" stroke-linecap="butt" stroke-linejoin="miter" stroke-miterlimit="10" stroke-dasharray="" stroke-dashoffset="0" font-family="none" font-weight="none" font-size="none" text-anchor="none" style="mix-blend-mode: normal"><path d="M0,172v-172h172v172z" fill="none"></path><g><path d="M50.16667,136.16667v-10.75h71.66667v10.75l46.58333,1.20042v5.96625c0,1.978 -1.60533,3.58333 -3.58333,3.58333h-157.66667c-1.978,0 -3.58333,-1.60533 -3.58333,-3.58333v-5.08475z" fill="url(#color-1)"></path><path d="M150.5,121.83333h-129c-3.95958,0 -7.16667,-3.20708 -7.16667,-7.16667v-82.41667c0,-3.95958 3.20708,-7.16667 7.16667,-7.16667h129c3.95958,0 7.16667,3.20708 7.16667,7.16667v82.41667c0,3.95958 -3.20708,7.16667 -7.16667,7.16667z" fill="url(#color-2)"></path><rect x="6" y="9" transform="scale(3.58333,3.58333)" width="36" height="23" fill="url(#color-3)"></rect><path d="M168.09058,137.36708l-10.27342,-12.84267c-1.35808,-1.70208 -3.4185,-2.69108 -5.59358,-2.69108h-132.44717c-2.17867,0 -4.2355,0.989 -5.59717,2.69108l-10.27342,12.84267c-0.76683,0.96033 -0.08242,2.38292 1.14667,2.38292h53.62817c1.36883,0 2.61583,-0.77758 3.21783,-2.00667l1.54442,-3.15333c0.602,-1.22908 1.849,-2.00667 3.21783,-2.00667h38.67492c1.36883,0 2.61583,0.77758 3.21783,2.00667l1.54442,3.15333c0.602,1.22908 1.849,2.00667 3.21783,2.00667h53.63175c1.22908,0 1.9135,-1.42258 1.14308,-2.38292z" fill="url(#color-4)"></path></g></g></svg>