<svg version="1.1" xmlns="http://www.w3.org/2000/svg" xmlns:xlink="http://www.w3.org/1999/xlink" viewBox="0 0 226 226"><defs><linearGradient x1="113" y1="29.12104" x2="113" y2="64.87142" gradientUnits="userSpaceOnUse" id="color-1"><stop offset="0" stop-color="#0d61a9"></stop><stop offset="1" stop-color="#16528c"></stop></linearGradient><linearGradient x1="113" y1="47.39408" x2="113" y2="80.67729" gradientUnits="userSpaceOnUse" id="color-2"><stop offset="0" stop-color="#199ae0"></stop><stop offset="1" stop-color="#0782d8"></stop></linearGradient><linearGradient x1="96.37958" y1="63.68962" x2="128.32092" y2="194.6425" gradientUnits="userSpaceOnUse" id="color-3"><stop offset="0" stop-color="#32bdef"></stop><stop offset="1" stop-color="#1ea2e4"></stop></linearGradient></defs><g fill="none" fill-rule="nonzero" stroke="none" stroke-width="1" stroke-linecap="butt" stroke-linejoin="miter" stroke-miterlimit="10" stroke-dasharray="" stroke-dashoffset="0" font-family="none" font-weight="none" font-size="none" text-anchor="none" style="mix-blend-mode: normal"><path d="M0,226v-226h226v226z" fill="none"></path><g><path d="M188.33333,28.25h-150.66667c-5.20271,0 -9.41667,4.21396 -9.41667,9.41667v28.25h169.5v-28.25c0,-5.20271 -4.21396,-9.41667 -9.41667,-9.41667z" fill="url(#color-1)"></path><path d="M193.04167,47.08333h-160.08333c-5.20271,0 -9.41667,4.21396 -9.41667,9.41667v23.54167h178.91667v-23.54167c0,-5.20271 -4.21396,-9.41667 -9.41667,-9.41667z" fill="url(#color-2)"></path><path d="M197.75,65.91667h-169.5c-5.20271,0 -9.41667,4.21396 -9.41667,9.41667v113c0,5.20271 4.21396,9.41667 9.41667,9.41667h169.5c5.20271,0 9.41667,-4.21396 9.41667,-9.41667v-113c0,-5.20271 -4.21396,-9.41667 -9.41667,-9.41667z" fill="url(#color-3)"></path><path d="M149.91804,127.61467c0,0 -43.00592,-28.76321 -48.17567,-32.11554c-5.16975,-3.35704 -12.28404,-0.91342 -12.28404,6.57283v62.55021c0,8.43733 6.97775,11.74258 12.27933,8.25371c5.30629,-3.48417 48.17567,-32.11554 48.17567,-32.11554c2.2035,-1.469 3.51713,-3.92675 3.51713,-6.57283c0.00471,-2.64608 -1.30892,-5.10383 -3.51242,-6.57283z" fill="#000000" opacity="0.05"></path><path d="M100.96079,97.51429l23.83358,15.89063l21.32875,14.21917c3.63483,2.71671 4.78838,4.11979 4.78838,6.56342c0,1.89746 -0.59796,3.77138 -2.28354,4.89667l-23.83358,15.89062l-23.83358,15.89063c-1.36071,0.90871 -9.14829,3.64896 -9.14829,-8.20663v-28.47129v-28.47129c0,-11.94504 6.64817,-9.86867 9.14829,-8.20192z" fill="#000000" opacity="0.07"></path><path d="M94.16667,165.62504v-62.87508c0,-3.08867 3.44179,-4.92963 6.01254,-3.21579l47.15867,31.43754c2.29767,1.53021 2.29767,4.90138 0,6.43629l-47.15867,31.43754c-2.57075,1.71383 -6.01254,-0.13183 -6.01254,-3.2205z" fill="#ffffff"></path></g></g></svg>